<?xml version="1.0" encoding="utf-8"?>
<!-- Generator: Adobe Illustrator 18.1.1, SVG Export Plug-In . SVG Version: 6.00 Build 0)  -->
<svg version="1.1" id="Layer_1" xmlns="http://www.w3.org/2000/svg" xmlns:xlink="http://www.w3.org/1999/xlink" x="0px" y="0px"
	 viewBox="0 0 50 50" style="enable-background:new 0 0 50 50;" xml:space="preserve">
<style type="text/css">
	.st0{fill:none;stroke:#FDFEFF;stroke-width:1.3245;stroke-linecap:round;stroke-linejoin:round;stroke-miterlimit:10;}
	.st1{fill:none;stroke:#FDFEFF;stroke-linecap:round;stroke-linejoin:round;stroke-miterlimit:10;}
</style>
<g>
	<path class="st0" d="M32.7,42.4H18.3c-2.1,0-3.8,1.7-3.8,3.8v1.2h21.9v-1.2C36.5,44.1,34.8,42.4,32.7,42.4z"/>
	<polyline class="st0" points="15.2,18.1 25.5,7.9 35.8,18.1 	"/>
	<path class="st0" d="M32.7,20.4v7.2c0,1-0.8,1.9-1.9,1.9H20.2c-1,0-1.9-0.8-1.9-1.9v-7.2"/>
	<path class="st1" d="M45.3,5.6c0-1.7-1.4-3-3-3H8.3c-1.7,0-3.1,1.4-3.1,3v29.9h40V5.6z"/>
	<path class="st1" d="M5,36v2.9C5,40.6,7.5,42,9.1,42h33.3c1.6,0,2.6-1.4,2.6-3.1V36H5z"/>
</g>
</svg>
